<mxfile host="app.diagrams.net" modified="2023-10-25T16:19:04.652Z" agent="Mozilla/5.0 (Windows NT 10.0; Win64; x64) AppleWebKit/537.36 (KHTML, like Gecko) Chrome/118.0.0.0 Safari/537.36 Edg/118.0.2088.61" etag="07yKRoxkLb83rnuiKn0s" version="22.0.8" type="google">
  <diagram name="Page-1" id="YvfcdAzbac87-B4OGmxQ">
    <mxGraphModel dx="560" dy="1164" grid="0" gridSize="10" guides="1" tooltips="1" connect="1" arrows="1" fold="1" page="0" pageScale="1" pageWidth="850" pageHeight="1100" math="0" shadow="0">
      <root>
        <mxCell id="0" />
        <mxCell id="1" parent="0" />
        <mxCell id="fr7Pc55FRuTKhIkcYHLQ-3" value="" style="edgeStyle=none;curved=1;rounded=0;orthogonalLoop=1;jettySize=auto;html=1;fontSize=12;startSize=8;endSize=8;" edge="1" parent="1" source="fr7Pc55FRuTKhIkcYHLQ-1" target="fr7Pc55FRuTKhIkcYHLQ-2">
          <mxGeometry relative="1" as="geometry" />
        </mxCell>
        <mxCell id="fr7Pc55FRuTKhIkcYHLQ-1" value="start" style="ellipse;whiteSpace=wrap;html=1;fontSize=16;" vertex="1" parent="1">
          <mxGeometry x="304" y="-68" width="120" height="66" as="geometry" />
        </mxCell>
        <mxCell id="fr7Pc55FRuTKhIkcYHLQ-5" value="" style="edgeStyle=none;curved=1;rounded=0;orthogonalLoop=1;jettySize=auto;html=1;fontSize=12;startSize=8;endSize=8;" edge="1" parent="1" source="fr7Pc55FRuTKhIkcYHLQ-2" target="fr7Pc55FRuTKhIkcYHLQ-4">
          <mxGeometry relative="1" as="geometry" />
        </mxCell>
        <mxCell id="fr7Pc55FRuTKhIkcYHLQ-2" value="read the year to be checked" style="shape=parallelogram;perimeter=parallelogramPerimeter;whiteSpace=wrap;html=1;fixedSize=1;fontSize=16;" vertex="1" parent="1">
          <mxGeometry x="242" y="32" width="235" height="60" as="geometry" />
        </mxCell>
        <mxCell id="fr7Pc55FRuTKhIkcYHLQ-7" value="" style="edgeStyle=none;curved=1;rounded=0;orthogonalLoop=1;jettySize=auto;html=1;fontSize=12;startSize=8;endSize=8;" edge="1" parent="1" source="fr7Pc55FRuTKhIkcYHLQ-4" target="fr7Pc55FRuTKhIkcYHLQ-6">
          <mxGeometry relative="1" as="geometry" />
        </mxCell>
        <mxCell id="fr7Pc55FRuTKhIkcYHLQ-11" value="" style="edgeStyle=none;curved=1;rounded=0;orthogonalLoop=1;jettySize=auto;html=1;fontSize=12;startSize=8;endSize=8;" edge="1" parent="1" source="fr7Pc55FRuTKhIkcYHLQ-4" target="fr7Pc55FRuTKhIkcYHLQ-10">
          <mxGeometry relative="1" as="geometry" />
        </mxCell>
        <mxCell id="fr7Pc55FRuTKhIkcYHLQ-4" value="year%4=0?" style="rhombus;whiteSpace=wrap;html=1;fontSize=16;" vertex="1" parent="1">
          <mxGeometry x="284" y="120" width="151" height="80" as="geometry" />
        </mxCell>
        <mxCell id="fr7Pc55FRuTKhIkcYHLQ-9" value="" style="edgeStyle=none;curved=1;rounded=0;orthogonalLoop=1;jettySize=auto;html=1;fontSize=12;startSize=8;endSize=8;" edge="1" parent="1" source="fr7Pc55FRuTKhIkcYHLQ-6" target="fr7Pc55FRuTKhIkcYHLQ-8">
          <mxGeometry relative="1" as="geometry" />
        </mxCell>
        <mxCell id="fr7Pc55FRuTKhIkcYHLQ-13" value="" style="edgeStyle=none;curved=1;rounded=0;orthogonalLoop=1;jettySize=auto;html=1;fontSize=12;startSize=8;endSize=8;" edge="1" parent="1" source="fr7Pc55FRuTKhIkcYHLQ-6" target="fr7Pc55FRuTKhIkcYHLQ-12">
          <mxGeometry relative="1" as="geometry" />
        </mxCell>
        <mxCell id="fr7Pc55FRuTKhIkcYHLQ-6" value="year%100!0?" style="rhombus;whiteSpace=wrap;html=1;fontSize=16;" vertex="1" parent="1">
          <mxGeometry x="284" y="220" width="151" height="80" as="geometry" />
        </mxCell>
        <mxCell id="fr7Pc55FRuTKhIkcYHLQ-20" value="" style="edgeStyle=none;curved=1;rounded=0;orthogonalLoop=1;jettySize=auto;html=1;fontSize=12;startSize=8;endSize=8;" edge="1" parent="1" source="fr7Pc55FRuTKhIkcYHLQ-8" target="fr7Pc55FRuTKhIkcYHLQ-19">
          <mxGeometry relative="1" as="geometry" />
        </mxCell>
        <mxCell id="fr7Pc55FRuTKhIkcYHLQ-8" value="display &quot;not a leap year&quot;" style="whiteSpace=wrap;html=1;fontSize=16;" vertex="1" parent="1">
          <mxGeometry x="284" y="328" width="155" height="60" as="geometry" />
        </mxCell>
        <mxCell id="fr7Pc55FRuTKhIkcYHLQ-17" value="" style="edgeStyle=none;curved=1;rounded=0;orthogonalLoop=1;jettySize=auto;html=1;fontSize=12;startSize=8;endSize=8;" edge="1" parent="1" source="fr7Pc55FRuTKhIkcYHLQ-10" target="fr7Pc55FRuTKhIkcYHLQ-12">
          <mxGeometry relative="1" as="geometry">
            <Array as="points">
              <mxPoint x="169" y="220" />
            </Array>
          </mxGeometry>
        </mxCell>
        <mxCell id="fr7Pc55FRuTKhIkcYHLQ-10" value="year%400=0?" style="rhombus;whiteSpace=wrap;html=1;fontSize=16;" vertex="1" parent="1">
          <mxGeometry x="93" y="114" width="151" height="80" as="geometry" />
        </mxCell>
        <mxCell id="fr7Pc55FRuTKhIkcYHLQ-12" value="display &quot;leap year&quot;" style="whiteSpace=wrap;html=1;fontSize=16;" vertex="1" parent="1">
          <mxGeometry x="111" y="230" width="120" height="60" as="geometry" />
        </mxCell>
        <mxCell id="fr7Pc55FRuTKhIkcYHLQ-14" value="no" style="text;html=1;align=center;verticalAlign=middle;resizable=0;points=[];autosize=1;strokeColor=none;fillColor=none;fontSize=16;" vertex="1" parent="1">
          <mxGeometry x="248" y="125" width="36" height="31" as="geometry" />
        </mxCell>
        <mxCell id="fr7Pc55FRuTKhIkcYHLQ-19" value="stop" style="ellipse;whiteSpace=wrap;html=1;fontSize=16;" vertex="1" parent="1">
          <mxGeometry x="321.5" y="447" width="80" height="44" as="geometry" />
        </mxCell>
        <mxCell id="fr7Pc55FRuTKhIkcYHLQ-21" value="" style="endArrow=classic;html=1;rounded=0;fontSize=12;startSize=8;endSize=8;curved=1;" edge="1" parent="1">
          <mxGeometry width="50" height="50" relative="1" as="geometry">
            <mxPoint x="167" y="296" as="sourcePoint" />
            <mxPoint x="320" y="471" as="targetPoint" />
            <Array as="points">
              <mxPoint x="116" y="519" />
            </Array>
          </mxGeometry>
        </mxCell>
        <mxCell id="fr7Pc55FRuTKhIkcYHLQ-23" value="" style="endArrow=classic;html=1;rounded=0;fontSize=12;startSize=8;endSize=8;curved=1;" edge="1" parent="1">
          <mxGeometry width="50" height="50" relative="1" as="geometry">
            <mxPoint x="90" y="154" as="sourcePoint" />
            <mxPoint x="278" y="362" as="targetPoint" />
            <Array as="points">
              <mxPoint x="-36" y="428" />
            </Array>
          </mxGeometry>
        </mxCell>
        <mxCell id="fr7Pc55FRuTKhIkcYHLQ-24" value="yes" style="text;html=1;align=center;verticalAlign=middle;resizable=0;points=[];autosize=1;strokeColor=none;fillColor=none;fontSize=16;" vertex="1" parent="1">
          <mxGeometry x="242" y="222" width="43" height="31" as="geometry" />
        </mxCell>
        <mxCell id="fr7Pc55FRuTKhIkcYHLQ-25" value="no" style="text;html=1;align=center;verticalAlign=middle;resizable=0;points=[];autosize=1;strokeColor=none;fillColor=none;fontSize=16;" vertex="1" parent="1">
          <mxGeometry x="53" y="128" width="36" height="31" as="geometry" />
        </mxCell>
      </root>
    </mxGraphModel>
  </diagram>
</mxfile>
